<?xml version="1.0" standalone="no"?>
<!DOCTYPE svg PUBLIC "-//W3C//DTD SVG 20010904//EN"
 "http://www.w3.org/TR/2001/REC-SVG-20010904/DTD/svg10.dtd">
<svg version="1.0" xmlns="http://www.w3.org/2000/svg"
 width="78.000000pt" height="79.000000pt" viewBox="0 0 78.000000 79.000000"
 preserveAspectRatio="xMidYMid meet">

<g transform="translate(0.000000,79.000000) scale(0.100000,-0.100000)"
fill="#000000" stroke="none">
<path d="M0 395 l0 -395 390 0 390 0 0 395 0 395 -390 0 -390 0 0 -395z m499
274 c121 -61 174 -183 136 -315 -14 -48 -27 -69 -75 -116 -55 -54 -59 -61 -62
-110 -3 -45 -6 -53 -23 -53 -17 0 -20 8 -23 45 l-3 45 -64 0 -65 0 0 -36 c0
-39 -21 -65 -45 -55 -11 4 -15 20 -15 59 0 51 -1 54 -44 84 -32 22 -53 49 -76
97 -30 60 -32 72 -28 136 14 196 210 307 387 219z"/>
<path d="M275 656 c-91 -43 -144 -126 -145 -227 0 -66 35 -145 83 -185 l32
-27 3 52 c2 40 -2 57 -17 78 -16 19 -21 40 -21 84 0 33 4 59 10 59 6 0 10 -24
10 -53 0 -55 19 -95 38 -83 7 4 12 33 12 67 0 33 4 59 10 59 6 0 10 -28 10
-65 0 -36 4 -65 8 -65 20 0 32 28 32 76 0 29 5 56 10 59 6 4 10 -18 10 -58 0
-52 -4 -67 -20 -82 -18 -16 -20 -29 -18 -89 l3 -71 34 -3 c19 -2 44 -1 57 2
22 6 24 11 24 74 -1 39 -7 77 -15 92 -52 91 33 211 94 134 26 -33 28 -109 5
-142 -10 -15 -14 -39 -12 -74 l3 -53 42 44 c67 68 88 162 58 252 -48 140 -207
208 -340 145z"/>
<path d="M447 472 c-10 -10 -17 -22 -17 -26 0 -5 9 2 19 15 11 13 23 21 27 17
4 -5 0 -16 -9 -26 -21 -23 -22 -51 -2 -78 8 -12 11 -24 8 -28 -3 -3 1 -6 11
-6 10 0 23 14 32 36 22 54 -2 114 -45 114 -4 0 -15 -8 -24 -18z"/>
<path d="M277 223 c-6 -116 -4 -138 14 -128 11 8 12 232 1 239 -5 3 -12 -47
-15 -111z"/>
<path d="M471 200 c-1 -79 2 -111 9 -104 7 7 8 44 2 115 l-9 104 -2 -115z"/>
</g>
</svg>
